<svg xmlns="http://www.w3.org/2000/svg" viewBox="0 0 153 22.11"><defs><style>.cls-1{fill:#fff;}.cls-2{fill:#29abe2;}</style></defs><g id="Layer_2" data-name="Layer 2"><g id="diseño"><path class="cls-1" d="M8.73,11.38H4.2L1.81,16.16H3.6l0,.42H0l0-.42h1.2l7.6-15h2.65l2.17,15H15l-.05.42H8l.05-.42H9.26ZM4.44,10.9H8.69L7.87,4.2Z"/><path class="cls-1" d="M22.08,14.57c0-1.22-1-1.51-2.47-2.06-1.26-.46-2.63-1.19-2.63-3,0-2.43,2.34-3.64,5.39-3.64,1.79,0,4,.28,4,2.21A1.63,1.63,0,0,1,24.49,9.7c-.77,0-1.5-.39-1.5-1.06a1.65,1.65,0,0,1,.33-1H24a1.25,1.25,0,0,0,.13-.53c0-.5-.49-.77-1.48-.77C21,6.3,20.34,7,20.34,7.78c0,1.08.77,1.39,2.23,2s3.12,1.15,3.12,3c0,2.7-2.5,4.05-5.8,4.05-2.47,0-4.13-.77-4.13-2.41a1.72,1.72,0,0,1,1.9-1.83,1.32,1.32,0,0,1,1.46,1.37,2.37,2.37,0,0,1-.2.9H18a1,1,0,0,0-.09.42c0,.58.53,1.06,1.77,1.06C21.64,16.31,22.08,15.3,22.08,14.57Z"/><path class="cls-1" d="M37.36,8.33c0,2.17-2.37,2.81-4.43,3.1a13.15,13.15,0,0,1-1.72.11c-.31,3.12.31,4.46,1.86,4.46,1.08,0,2.27-.77,3-3.18l.44.13c-.82,2.72-2.43,3.85-5.08,3.85-2.81,0-4.47-1.5-4.47-4.11,0-4.53,2.74-6.85,6.65-6.85C36.16,5.84,37.36,6.7,37.36,8.33ZM33.47,6.26c-1.2,0-1.88,2.18-2.22,4.86,1.51-.07,2.88-.8,2.88-3.52C34.13,6.79,34,6.26,33.47,6.26Z"/><path class="cls-1" d="M39.92,20.2c-.2.91.24,1.4,1.24,1.4,1.7,0,2.63-1.2,3.58-5,.13-.58.22-.91.37-1.64l-.08,0a3.57,3.57,0,0,1-3.41,1.92c-2.28,0-3.49-1.24-3.49-3.78,0-3.34,1.28-7.18,5.3-7.18A2.56,2.56,0,0,1,46,7.45l.31-1.3a27.46,27.46,0,0,0,4-.2c-.46,2.25-.75,3.4-1.63,9.21-.71,4.69-3.54,7-7.52,7-1.94,0-3.93-.78-3.93-2.57a2,2,0,0,1,2.05-2.17c1.11,0,2.13.65,1.84,2.46Zm5-6.56a15.44,15.44,0,0,0,.81-4.73c0-1.44-.48-2.32-1.26-2.32s-1.26.79-1.65,2.25A20.94,20.94,0,0,0,42,14.3c0,.82.18,1.64,1,1.64C43.7,15.94,44.38,15.25,44.94,13.64Z"/><path class="cls-1" d="M53.27,6.45h-1.5l.06-.39h5.66c-1,4.13-1.5,6.63-1.74,8.22-.09.55-.23,1.28.53,1.28,1,0,2.1-2.28,2.69-5.48a23.16,23.16,0,0,0,.49-3.8A40,40,0,0,0,63.88,6c-.55,2.68-1.33,6.52-1.57,8.54-.09.72-.18,1.41.51,1.41.4,0,.86-.33,1.46-1.24l.35.27a3.42,3.42,0,0,1-3.18,1.81c-2.48,0-3.3-1.26-2.54-3.78l-.14,0c-.79,2.14-1.9,3.82-4.44,3.82-2.1,0-2.78-1.46-2.43-3.36S53,7.8,53.27,6.45Z"/><path class="cls-1" d="M66.29,12.22l.79-5.77h-1.5l.07-.39h5.46l-1,4.15.11,0c.64-1.7,2.23-4.39,4.71-4.39a1.86,1.86,0,0,1,2,2A2,2,0,0,1,74.93,10a3.23,3.23,0,0,1-1.52-.38l-.14-1.83c-1.19,0-2.36,1.65-2.91,4.06a22.52,22.52,0,0,0-.62,4.67,33.72,33.72,0,0,0-4.45.29Z"/><path class="cls-1" d="M90.07,14.92a3.3,3.3,0,0,1-3,1.88c-2.19,0-3-1.11-2.65-2.9l-.11,0c-.6,1.73-1.73,2.92-3.65,2.92-2.56,0-3.56-1.48-3.56-3.85,0-4.06,1.86-7.11,5.44-7.11,1.63,0,2.14.61,2.47,1.45l.31-1.17a26.26,26.26,0,0,0,4-.17c-.55,2.72-1.13,5.28-1.61,8.48a5.42,5.42,0,0,0-.09.8c0,.58.26.71.57.71s.82-.22,1.46-1.22Zm-6-1.5a17.91,17.91,0,0,0,.77-5.15c0-1.33-.62-1.84-1.24-1.84S82.42,7.05,82,8.6a24.46,24.46,0,0,0-.88,5.72c0,.76.09,1.62,1,1.62C82.73,15.94,83.49,15.16,84,13.42Z"/><path class="cls-1" d="M102.47,8.82c-.37,2.1-.73,3.93-1,5.61a5.42,5.42,0,0,0-.09.8c0,.58.26.71.57.71s.82-.22,1.46-1.22l.33.2a3.37,3.37,0,0,1-3,1.88c-2.19,0-3-1.11-2.66-2.9l-.11,0c-.59,1.73-1.72,2.92-3.64,2.92-2.57,0-3.56-1.48-3.56-3.85,0-4.06,1.85-7.11,5.43-7.11a2.36,2.36,0,0,1,2.55,1.7L99.82.4H98.38l.07-.4h5.61Zm-4.84,4.6a17.57,17.57,0,0,0,.78-5.15c0-1.33-.62-1.84-1.24-1.84S96,7.05,95.6,8.6a24,24,0,0,0-.89,5.72c0,.76.09,1.62,1,1.62C96.35,15.94,97.1,15.16,97.63,13.42Z"/><path class="cls-1" d="M104.39,12.64c0-4,2.26-6.8,6.5-6.8,2.94,0,4.53,1.19,4.53,4,0,4.65-2.63,7-6.47,7C105.9,16.8,104.39,15.39,104.39,12.64Zm7.3-4.86c0-1-.27-1.55-.91-1.55-1.37,0-1.74,1.71-2.34,5.24a22.69,22.69,0,0,0-.35,3.45c0,1,.26,1.48,1,1.48,1.24,0,1.57-1.21,2.26-5.3A22.44,22.44,0,0,0,111.69,7.78Z"/><path class="cls-1" d="M122.37,14.57c0-1.22-1-1.51-2.48-2.06-1.26-.46-2.63-1.19-2.63-3,0-2.43,2.34-3.64,5.39-3.64,1.79,0,4,.28,4,2.21a1.63,1.63,0,0,1-1.84,1.65c-.77,0-1.5-.39-1.5-1.06a1.65,1.65,0,0,1,.33-1h.71a1.25,1.25,0,0,0,.13-.53c0-.5-.48-.77-1.48-.77-1.66,0-2.34.71-2.34,1.48,0,1.08.77,1.39,2.23,2s3.12,1.15,3.12,3c0,2.7-2.5,4.05-5.79,4.05-2.48,0-4.14-.77-4.14-2.41a1.72,1.72,0,0,1,1.9-1.83,1.32,1.32,0,0,1,1.46,1.37,2.2,2.2,0,0,1-.2.9h-.88a1,1,0,0,0-.09.42c0,.58.53,1.06,1.77,1.06C121.92,16.31,122.37,15.3,122.37,14.57Z"/><path class="cls-2" d="M131.69,14.48a2.14,2.14,0,0,1-2.25,2.32,1.52,1.52,0,0,1-1.66-1.64A2.18,2.18,0,0,1,130,13C131,13,131.69,13.53,131.69,14.48Z"/><path class="cls-2" d="M138.13,14.88a2.12,2.12,0,0,1-2.19,1.8c-1.43,0-2.15-.71-2.15-2a2.88,2.88,0,0,1,3.15-3.09c1.12,0,1.57.56,1.57,1.15a1,1,0,0,1-1,1.07c-.55,0-.71-.33-.71-.64a1.37,1.37,0,0,1,.15-.54h.43a1.24,1.24,0,0,0,.11-.47c0-.32-.22-.39-.43-.39-.65,0-1,.77-1.15,1.72a9.25,9.25,0,0,0-.17,1.62c0,.85.25,1.18.8,1.18s1.07-.39,1.37-1.49Z"/><path class="cls-2" d="M138.75,14.76a2.85,2.85,0,0,1,3-3.14c1.36,0,2.09.55,2.09,1.84,0,2.14-1.21,3.22-3,3.22C139.44,16.68,138.75,16,138.75,14.76Zm3.37-2.24c0-.46-.13-.72-.42-.72-.64,0-.81.79-1.08,2.42a9.56,9.56,0,0,0-.17,1.59c0,.47.12.69.46.69.57,0,.73-.56,1-2.45A11,11,0,0,0,142.12,12.52Z"/><path class="cls-2" d="M148,13.06c.17-.67.19-.92-.1-.92s-.56.24-.94,1.06a8.82,8.82,0,0,0-.69,3.35,19.43,19.43,0,0,0-2,.1l.43-1.9.42-2.85h-.71l0-.18H147l-.4,1.69h0c.46-1,.94-1.8,2.11-1.8.66,0,.93.33.93.84a2.55,2.55,0,0,1-.15.75h0a2.21,2.21,0,0,1,2-1.6.94.94,0,0,1,1.06,1,3.92,3.92,0,0,1-.11.88L152,15.37a4.44,4.44,0,0,0-.12.65c0,.2.12.24.26.24s.39-.16.64-.59l.18.1a1.61,1.61,0,0,1-1.51.91c-.78,0-1.34-.33-1.34-1.19a10.68,10.68,0,0,1,.6-2.43c.18-.48.35-.92,0-.92-.22,0-.52.32-.83.91a10.45,10.45,0,0,0-.83,3.5,17.36,17.36,0,0,0-1.94.1C147.39,15.44,147.71,14.33,148,13.06Z"/></g></g></svg>