<svg xmlns="http://www.w3.org/2000/svg" viewBox="0 0 23.76 23.76"><defs><style>.cls-1{fill:#fff;}</style></defs><g id="Layer_2" data-name="Layer 2"><g id="diseño"><path class="cls-1" d="M14.15,11.88a2.27,2.27,0,1,1-2.27-2.27A2.26,2.26,0,0,1,14.15,11.88Z"/><path class="cls-1" d="M17.2,7.86a2.23,2.23,0,0,0-1.3-1.3,3.87,3.87,0,0,0-1.26-.23c-.72,0-.94,0-2.76,0s-2,0-2.76,0a3.87,3.87,0,0,0-1.26.23,2.23,2.23,0,0,0-1.3,1.3,3.87,3.87,0,0,0-.23,1.26c0,.72,0,.94,0,2.76s0,2,0,2.76a3.87,3.87,0,0,0,.23,1.26,2.23,2.23,0,0,0,1.3,1.3,3.87,3.87,0,0,0,1.26.23c.72,0,.94,0,2.76,0s2,0,2.76,0a3.87,3.87,0,0,0,1.26-.23,2.25,2.25,0,0,0,1.3-1.3,3.87,3.87,0,0,0,.23-1.26c0-.72,0-.94,0-2.76s0-2,0-2.76A3.87,3.87,0,0,0,17.2,7.86Zm-5.32,7.52a3.5,3.5,0,1,1,3.5-3.5A3.5,3.5,0,0,1,11.88,15.38Zm3.64-6.32a.82.82,0,1,1,.82-.82A.82.82,0,0,1,15.52,9.06Z"/><path class="cls-1" d="M11.88,0A11.88,11.88,0,1,0,23.76,11.88,11.88,11.88,0,0,0,11.88,0Zm6.78,14.69a4.92,4.92,0,0,1-.32,1.66,3.48,3.48,0,0,1-2,2,4.92,4.92,0,0,1-1.66.32c-.73,0-1,0-2.81,0s-2.09,0-2.81,0a4.92,4.92,0,0,1-1.66-.32,3.41,3.41,0,0,1-2-2,4.92,4.92,0,0,1-.32-1.66c0-.73,0-1,0-2.81s0-2.09,0-2.81a4.92,4.92,0,0,1,.32-1.66,3.41,3.41,0,0,1,2-2A4.92,4.92,0,0,1,9.07,5.1c.72,0,1,0,2.81,0s2.08,0,2.81,0a4.92,4.92,0,0,1,1.66.32,3.41,3.41,0,0,1,2,2,4.92,4.92,0,0,1,.32,1.66c0,.72,0,1,0,2.81S18.69,14,18.66,14.69Z"/></g></g></svg>