<svg xmlns="http://www.w3.org/2000/svg" viewBox="0 0 23.76 23.76"><defs><style>.cls-1{fill:#fff;}</style></defs><g id="Layer_2" data-name="Layer 2"><g id="diseño"><path class="cls-1" d="M10.4,14.11l3.86-2.23L10.4,9.65Z"/><path class="cls-1" d="M11.88,0A11.88,11.88,0,1,0,23.76,11.88,11.88,11.88,0,0,0,11.88,0ZM19.3,11.89a20,20,0,0,1-.3,3.57,1.86,1.86,0,0,1-1.31,1.31,44.55,44.55,0,0,1-5.81.31,43.25,43.25,0,0,1-5.81-.32,1.86,1.86,0,0,1-1.31-1.31,19.89,19.89,0,0,1-.3-3.57,20,20,0,0,1,.3-3.57A1.89,1.89,0,0,1,6.07,7a44.55,44.55,0,0,1,5.81-.31A43.17,43.17,0,0,1,17.69,7,1.86,1.86,0,0,1,19,8.31,18.24,18.24,0,0,1,19.3,11.89Z"/></g></g></svg>